<mxfile host="app.diagrams.net" modified="2024-04-21T19:14:13.433Z" agent="Mozilla/5.0 (Windows NT 10.0; Win64; x64; rv:124.0) Gecko/20100101 Firefox/124.0" etag="R-0CiSSg0taipNNeBNEd" version="24.2.7" type="device">
  <diagram name="Page-1" id="UANN2-UqOU0tCsT_ixzw">
    <mxGraphModel dx="683" dy="355" grid="1" gridSize="10" guides="1" tooltips="1" connect="1" arrows="1" fold="1" page="1" pageScale="1" pageWidth="850" pageHeight="1100" math="0" shadow="0">
      <root>
        <mxCell id="0" />
        <mxCell id="1" parent="0" />
        <mxCell id="vpBdXBjlBsXyA6EoPlu3-149" value="" style="rounded=0;whiteSpace=wrap;html=1;strokeColor=default;align=center;verticalAlign=middle;fontFamily=Roboto;fontSource=https%3A%2F%2Ffonts.googleapis.com%2Fcss%3Ffamily%3DRoboto;fontSize=12;fontColor=default;labelBackgroundColor=default;fillColor=default;sketch=1;curveFitting=1;jiggle=2;" vertex="1" parent="1">
          <mxGeometry x="440" y="330" width="20" height="20" as="geometry" />
        </mxCell>
        <mxCell id="vpBdXBjlBsXyA6EoPlu3-151" style="edgeStyle=orthogonalEdgeStyle;rounded=0;orthogonalLoop=1;jettySize=auto;html=1;exitX=1;exitY=0.5;exitDx=0;exitDy=0;dashed=1;strokeColor=default;align=center;verticalAlign=middle;fontFamily=Roboto;fontSource=https%3A%2F%2Ffonts.googleapis.com%2Fcss%3Ffamily%3DRoboto;fontSize=12;fontColor=default;labelBackgroundColor=default;endArrow=none;endFill=0;dashPattern=1 1;entryX=0;entryY=0.5;entryDx=0;entryDy=0;" edge="1" parent="1" source="vpBdXBjlBsXyA6EoPlu3-127" target="vpBdXBjlBsXyA6EoPlu3-145">
          <mxGeometry relative="1" as="geometry" />
        </mxCell>
        <mxCell id="vpBdXBjlBsXyA6EoPlu3-79" value="Req B" style="rounded=0;whiteSpace=wrap;html=1;strokeColor=default;align=center;verticalAlign=middle;fontFamily=Roboto;fontSource=https%3A%2F%2Ffonts.googleapis.com%2Fcss%3Ffamily%3DRoboto;fontSize=12;fontColor=default;fillColor=default;sketch=1;curveFitting=1;jiggle=2;" vertex="1" parent="1">
          <mxGeometry x="80" y="320" width="80" height="40" as="geometry" />
        </mxCell>
        <mxCell id="vpBdXBjlBsXyA6EoPlu3-80" value="DB" style="shape=cylinder3;whiteSpace=wrap;html=1;boundedLbl=1;backgroundOutline=1;size=15;rounded=0;strokeColor=default;align=center;verticalAlign=middle;fontFamily=Roboto;fontSource=https%3A%2F%2Ffonts.googleapis.com%2Fcss%3Ffamily%3DRoboto;fontSize=12;fontColor=default;fillColor=default;sketch=1;curveFitting=1;jiggle=2;" vertex="1" parent="1">
          <mxGeometry x="80" y="389" width="80" height="61" as="geometry" />
        </mxCell>
        <mxCell id="vpBdXBjlBsXyA6EoPlu3-81" value="Req A" style="rounded=0;whiteSpace=wrap;html=1;strokeColor=default;align=center;verticalAlign=middle;fontFamily=Roboto;fontSource=https%3A%2F%2Ffonts.googleapis.com%2Fcss%3Ffamily%3DRoboto;fontSize=12;fontColor=default;fillColor=default;sketch=1;curveFitting=1;jiggle=2;" vertex="1" parent="1">
          <mxGeometry x="80" y="261" width="80" height="40" as="geometry" />
        </mxCell>
        <mxCell id="vpBdXBjlBsXyA6EoPlu3-124" value="" style="rounded=0;whiteSpace=wrap;html=1;strokeColor=#6c8ebf;align=center;verticalAlign=middle;fontFamily=Roboto;fontSource=https%3A%2F%2Ffonts.googleapis.com%2Fcss%3Ffamily%3DRoboto;fontSize=12;labelBackgroundColor=default;fillColor=#dae8fc;fillStyle=solid;" vertex="1" parent="1">
          <mxGeometry x="180" y="330" width="40" height="20" as="geometry" />
        </mxCell>
        <mxCell id="vpBdXBjlBsXyA6EoPlu3-125" value="" style="rounded=0;whiteSpace=wrap;html=1;strokeColor=#82b366;align=center;verticalAlign=middle;fontFamily=Roboto;fontSource=https%3A%2F%2Ffonts.googleapis.com%2Fcss%3Ffamily%3DRoboto;fontSize=12;labelBackgroundColor=default;fillColor=#d5e8d4;" vertex="1" parent="1">
          <mxGeometry x="220" y="330" width="40" height="20" as="geometry" />
        </mxCell>
        <mxCell id="vpBdXBjlBsXyA6EoPlu3-127" value="" style="rounded=0;whiteSpace=wrap;html=1;strokeColor=default;align=center;verticalAlign=middle;fontFamily=Roboto;fontSource=https%3A%2F%2Ffonts.googleapis.com%2Fcss%3Ffamily%3DRoboto;fontSize=12;fontColor=default;labelBackgroundColor=default;fillColor=none;sketch=1;curveFitting=1;jiggle=2;" vertex="1" parent="1">
          <mxGeometry x="260" y="330" width="20" height="20" as="geometry" />
        </mxCell>
        <mxCell id="vpBdXBjlBsXyA6EoPlu3-137" value="" style="rounded=0;whiteSpace=wrap;html=1;strokeColor=#6c8ebf;align=center;verticalAlign=middle;fontFamily=Roboto;fontSource=https%3A%2F%2Ffonts.googleapis.com%2Fcss%3Ffamily%3DRoboto;fontSize=12;labelBackgroundColor=default;fillColor=#dae8fc;" vertex="1" parent="1">
          <mxGeometry x="280" y="271" width="40" height="20" as="geometry" />
        </mxCell>
        <mxCell id="vpBdXBjlBsXyA6EoPlu3-139" value="" style="rounded=0;whiteSpace=wrap;html=1;strokeColor=#82b366;align=center;verticalAlign=middle;fontFamily=Roboto;fontSource=https%3A%2F%2Ffonts.googleapis.com%2Fcss%3Ffamily%3DRoboto;fontSize=12;labelBackgroundColor=default;fillColor=#d5e8d4;" vertex="1" parent="1">
          <mxGeometry x="320" y="271" width="40" height="20" as="geometry" />
        </mxCell>
        <mxCell id="vpBdXBjlBsXyA6EoPlu3-141" value="" style="rounded=0;whiteSpace=wrap;html=1;strokeColor=default;align=center;verticalAlign=middle;fontFamily=Roboto;fontSource=https%3A%2F%2Ffonts.googleapis.com%2Fcss%3Ffamily%3DRoboto;fontSize=12;fontColor=default;labelBackgroundColor=default;fillColor=default;sketch=1;curveFitting=1;jiggle=2;" vertex="1" parent="1">
          <mxGeometry x="380" y="271" width="80" height="20" as="geometry" />
        </mxCell>
        <mxCell id="vpBdXBjlBsXyA6EoPlu3-143" value="" style="rounded=0;whiteSpace=wrap;html=1;strokeColor=#b85450;align=center;verticalAlign=middle;fontFamily=Roboto;fontSource=https%3A%2F%2Ffonts.googleapis.com%2Fcss%3Ffamily%3DRoboto;fontSize=12;labelBackgroundColor=default;fillColor=#f8cecc;" vertex="1" parent="1">
          <mxGeometry x="360" y="271" width="20" height="20" as="geometry" />
        </mxCell>
        <mxCell id="vpBdXBjlBsXyA6EoPlu3-145" value="" style="rounded=0;whiteSpace=wrap;html=1;align=center;verticalAlign=middle;fontFamily=Roboto;fontSource=https%3A%2F%2Ffonts.googleapis.com%2Fcss%3Ffamily%3DRoboto;fontSize=12;labelBackgroundColor=default;sketch=1;curveFitting=1;jiggle=2;" vertex="1" parent="1">
          <mxGeometry x="400" y="330" width="20" height="20" as="geometry" />
        </mxCell>
        <mxCell id="vpBdXBjlBsXyA6EoPlu3-147" value="" style="rounded=0;whiteSpace=wrap;html=1;strokeColor=#b85450;align=center;verticalAlign=middle;fontFamily=Roboto;fontSource=https%3A%2F%2Ffonts.googleapis.com%2Fcss%3Ffamily%3DRoboto;fontSize=12;labelBackgroundColor=default;fillColor=#f8cecc;" vertex="1" parent="1">
          <mxGeometry x="420" y="330" width="20" height="20" as="geometry" />
        </mxCell>
        <mxCell id="vpBdXBjlBsXyA6EoPlu3-160" value="" style="rounded=0;whiteSpace=wrap;html=1;strokeColor=default;align=center;verticalAlign=middle;fontFamily=Roboto;fontSource=https%3A%2F%2Ffonts.googleapis.com%2Fcss%3Ffamily%3DRoboto;fontSize=12;fontColor=default;labelBackgroundColor=default;fillColor=default;sketch=1;curveFitting=1;jiggle=2;" vertex="1" parent="1">
          <mxGeometry x="160" y="420" width="300" height="5" as="geometry" />
        </mxCell>
        <mxCell id="vpBdXBjlBsXyA6EoPlu3-169" style="edgeStyle=orthogonalEdgeStyle;rounded=0;orthogonalLoop=1;jettySize=auto;html=1;dashed=1;strokeColor=#9673a6;align=center;verticalAlign=middle;fontFamily=Roboto;fontSource=https%3A%2F%2Ffonts.googleapis.com%2Fcss%3Ffamily%3DRoboto;fontSize=12;fontColor=default;labelBackgroundColor=default;endArrow=open;endFill=0;fillColor=#e1d5e7;strokeWidth=1;sketch=1;curveFitting=1;jiggle=2;" edge="1" parent="1">
          <mxGeometry relative="1" as="geometry">
            <mxPoint x="528" y="315.74" as="targetPoint" />
            <mxPoint x="488" y="315" as="sourcePoint" />
          </mxGeometry>
        </mxCell>
        <mxCell id="vpBdXBjlBsXyA6EoPlu3-171" style="edgeStyle=orthogonalEdgeStyle;rounded=0;orthogonalLoop=1;jettySize=auto;html=1;dashed=1;strokeColor=default;align=center;verticalAlign=middle;fontFamily=Roboto;fontSource=https%3A%2F%2Ffonts.googleapis.com%2Fcss%3Ffamily%3DRoboto;fontSize=12;fontColor=default;labelBackgroundColor=default;endArrow=none;endFill=0;dashPattern=1 1;" edge="1" parent="1">
          <mxGeometry relative="1" as="geometry">
            <mxPoint x="528" y="296" as="targetPoint" />
            <mxPoint x="488" y="296" as="sourcePoint" />
            <Array as="points">
              <mxPoint x="518" y="296" />
              <mxPoint x="518" y="296" />
            </Array>
          </mxGeometry>
        </mxCell>
        <mxCell id="vpBdXBjlBsXyA6EoPlu3-172" value="" style="rounded=0;whiteSpace=wrap;html=1;strokeColor=#6c8ebf;align=center;verticalAlign=middle;fontFamily=Roboto;fontSource=https%3A%2F%2Ffonts.googleapis.com%2Fcss%3Ffamily%3DRoboto;fontSize=12;labelBackgroundColor=default;fillColor=#dae8fc;fillStyle=solid;strokeWidth=1;perimeterSpacing=0;" vertex="1" parent="1">
          <mxGeometry x="488" y="351" width="40" height="10" as="geometry" />
        </mxCell>
        <mxCell id="vpBdXBjlBsXyA6EoPlu3-173" value="" style="rounded=0;whiteSpace=wrap;html=1;strokeColor=#82b366;align=center;verticalAlign=middle;fontFamily=Roboto;fontSource=https%3A%2F%2Ffonts.googleapis.com%2Fcss%3Ffamily%3DRoboto;fontSize=12;labelBackgroundColor=default;fillColor=#d5e8d4;fillStyle=solid;" vertex="1" parent="1">
          <mxGeometry x="488" y="371" width="40" height="10" as="geometry" />
        </mxCell>
        <mxCell id="vpBdXBjlBsXyA6EoPlu3-174" value="" style="rounded=0;whiteSpace=wrap;html=1;strokeColor=#b85450;align=center;verticalAlign=middle;fontFamily=Roboto;fontSource=https%3A%2F%2Ffonts.googleapis.com%2Fcss%3Ffamily%3DRoboto;fontSize=12;labelBackgroundColor=default;fillColor=#f8cecc;fillStyle=solid;" vertex="1" parent="1">
          <mxGeometry x="488" y="391" width="40" height="10" as="geometry" />
        </mxCell>
        <mxCell id="vpBdXBjlBsXyA6EoPlu3-175" value="waiting for callback" style="text;html=1;align=left;verticalAlign=middle;resizable=0;points=[];autosize=1;strokeColor=none;fillColor=none;fontFamily=Roboto;fontSource=https%3A%2F%2Ffonts.googleapis.com%2Fcss%3Ffamily%3DRoboto;fontSize=12;fontColor=default;labelBackgroundColor=default;sketch=1;curveFitting=1;jiggle=2;" vertex="1" parent="1">
          <mxGeometry x="538" y="280" width="130" height="30" as="geometry" />
        </mxCell>
        <mxCell id="vpBdXBjlBsXyA6EoPlu3-176" value="callback" style="text;html=1;align=left;verticalAlign=middle;resizable=0;points=[];autosize=1;strokeColor=none;fillColor=none;fontFamily=Roboto;fontSource=https%3A%2F%2Ffonts.googleapis.com%2Fcss%3Ffamily%3DRoboto;fontSize=12;fontColor=default;labelBackgroundColor=default;sketch=1;curveFitting=1;jiggle=2;" vertex="1" parent="1">
          <mxGeometry x="538" y="300" width="70" height="30" as="geometry" />
        </mxCell>
        <mxCell id="vpBdXBjlBsXyA6EoPlu3-177" value="fetching data" style="text;html=1;align=left;verticalAlign=middle;resizable=0;points=[];autosize=1;strokeColor=none;fillColor=none;fontFamily=Roboto;fontSource=https%3A%2F%2Ffonts.googleapis.com%2Fcss%3Ffamily%3DRoboto;fontSize=12;fontColor=default;labelBackgroundColor=default;sketch=1;curveFitting=1;jiggle=2;" vertex="1" parent="1">
          <mxGeometry x="538" y="340" width="90" height="30" as="geometry" />
        </mxCell>
        <mxCell id="vpBdXBjlBsXyA6EoPlu3-178" value="server-side code" style="text;html=1;align=left;verticalAlign=middle;resizable=0;points=[];autosize=1;strokeColor=none;fillColor=none;fontFamily=Roboto;fontSource=https%3A%2F%2Ffonts.googleapis.com%2Fcss%3Ffamily%3DRoboto;fontSize=12;fontColor=default;labelBackgroundColor=default;sketch=1;curveFitting=1;jiggle=2;" vertex="1" parent="1">
          <mxGeometry x="538" y="320" width="110" height="30" as="geometry" />
        </mxCell>
        <mxCell id="vpBdXBjlBsXyA6EoPlu3-179" value="domain logic" style="text;html=1;align=left;verticalAlign=middle;resizable=0;points=[];autosize=1;strokeColor=none;fillColor=none;fontFamily=Roboto;fontSource=https%3A%2F%2Ffonts.googleapis.com%2Fcss%3Ffamily%3DRoboto;fontSize=12;fontColor=default;labelBackgroundColor=default;sketch=1;curveFitting=1;jiggle=2;" vertex="1" parent="1">
          <mxGeometry x="538" y="360" width="90" height="30" as="geometry" />
        </mxCell>
        <mxCell id="vpBdXBjlBsXyA6EoPlu3-180" value="commiting changes" style="text;html=1;align=left;verticalAlign=middle;resizable=0;points=[];autosize=1;strokeColor=none;fillColor=none;fontFamily=Roboto;fontSource=https%3A%2F%2Ffonts.googleapis.com%2Fcss%3Ffamily%3DRoboto;fontSize=12;fontColor=default;labelBackgroundColor=default;sketch=1;curveFitting=1;jiggle=2;" vertex="1" parent="1">
          <mxGeometry x="538" y="380" width="130" height="30" as="geometry" />
        </mxCell>
        <mxCell id="vpBdXBjlBsXyA6EoPlu3-122" value="" style="rounded=0;whiteSpace=wrap;html=1;strokeColor=default;align=center;verticalAlign=middle;fontFamily=Roboto;fontSource=https%3A%2F%2Ffonts.googleapis.com%2Fcss%3Ffamily%3DRoboto;fontSize=12;fontColor=default;labelBackgroundColor=default;fillColor=default;sketch=1;curveFitting=1;jiggle=2;" vertex="1" parent="1">
          <mxGeometry x="160" y="330" width="20" height="20" as="geometry" />
        </mxCell>
        <mxCell id="vpBdXBjlBsXyA6EoPlu3-134" value="" style="rounded=0;whiteSpace=wrap;html=1;strokeColor=default;align=center;verticalAlign=middle;fontFamily=Roboto;fontSource=https%3A%2F%2Ffonts.googleapis.com%2Fcss%3Ffamily%3DRoboto;fontSize=12;fontColor=default;labelBackgroundColor=default;fillColor=default;sketch=1;curveFitting=1;jiggle=2;" vertex="1" parent="1">
          <mxGeometry x="260" y="271" width="20" height="20" as="geometry" />
        </mxCell>
        <mxCell id="vpBdXBjlBsXyA6EoPlu3-121" value="" style="rounded=0;whiteSpace=wrap;html=1;strokeColor=default;align=center;verticalAlign=middle;fontFamily=Roboto;fontSource=https%3A%2F%2Ffonts.googleapis.com%2Fcss%3Ffamily%3DRoboto;fontSize=12;fontColor=default;labelBackgroundColor=default;fillColor=default;sketch=1;curveFitting=1;jiggle=2;" vertex="1" parent="1">
          <mxGeometry x="160" y="271" width="20" height="20" as="geometry" />
        </mxCell>
        <mxCell id="vpBdXBjlBsXyA6EoPlu3-186" value="" style="rounded=0;whiteSpace=wrap;html=1;strokeColor=#d6b656;align=center;verticalAlign=middle;fontFamily=Roboto;fontSource=https%3A%2F%2Ffonts.googleapis.com%2Fcss%3Ffamily%3DRoboto;fontSize=12;labelBackgroundColor=default;fillColor=none;strokeWidth=2;dashed=1;dashPattern=1 1;sketch=1;curveFitting=1;jiggle=2;" vertex="1" parent="1">
          <mxGeometry x="180" y="329" width="260" height="22" as="geometry" />
        </mxCell>
        <mxCell id="vpBdXBjlBsXyA6EoPlu3-157" value="" style="shape=flexArrow;endArrow=classic;html=1;rounded=0;strokeColor=#6c8ebf;align=center;verticalAlign=middle;fontFamily=Roboto;fontSource=https%3A%2F%2Ffonts.googleapis.com%2Fcss%3Ffamily%3DRoboto;fontSize=12;fontColor=default;labelBackgroundColor=default;edgeStyle=orthogonalEdgeStyle;entryX=0.5;entryY=1;entryDx=0;entryDy=0;endWidth=5.724852071005917;endSize=3.167307692307692;width=4.230769230769231;exitX=0.133;exitY=0.022;exitDx=0;exitDy=0;exitPerimeter=0;fillColor=#dae8fc;sketch=1;curveFitting=1;jiggle=2;" edge="1" parent="1" source="vpBdXBjlBsXyA6EoPlu3-160" target="vpBdXBjlBsXyA6EoPlu3-124">
          <mxGeometry width="50" height="50" relative="1" as="geometry">
            <mxPoint x="200" y="440" as="sourcePoint" />
            <mxPoint x="199.76" y="380" as="targetPoint" />
            <Array as="points" />
          </mxGeometry>
        </mxCell>
        <mxCell id="vpBdXBjlBsXyA6EoPlu3-162" value="" style="shape=flexArrow;endArrow=classic;html=1;rounded=0;strokeColor=#b85450;align=center;verticalAlign=middle;fontFamily=Roboto;fontSource=https%3A%2F%2Ffonts.googleapis.com%2Fcss%3Ffamily%3DRoboto;fontSize=12;fontColor=default;labelBackgroundColor=default;edgeStyle=orthogonalEdgeStyle;endWidth=5.724852071005917;endSize=3.167307692307692;width=4.230769230769231;exitX=0.111;exitY=0.09;exitDx=0;exitDy=0;exitPerimeter=0;fillColor=#f8cecc;entryX=0.901;entryY=-0.089;entryDx=0;entryDy=0;entryPerimeter=0;sketch=1;curveFitting=1;jiggle=2;" edge="1" parent="1" target="vpBdXBjlBsXyA6EoPlu3-160">
          <mxGeometry width="50" height="50" relative="1" as="geometry">
            <mxPoint x="429.8" y="350" as="sourcePoint" />
            <mxPoint x="430" y="420" as="targetPoint" />
          </mxGeometry>
        </mxCell>
        <mxCell id="vpBdXBjlBsXyA6EoPlu3-133" style="edgeStyle=orthogonalEdgeStyle;rounded=0;orthogonalLoop=1;jettySize=auto;html=1;exitX=0;exitY=0;exitDx=0;exitDy=0;dashed=1;strokeColor=#9673a6;align=center;verticalAlign=middle;fontFamily=Roboto;fontSource=https%3A%2F%2Ffonts.googleapis.com%2Fcss%3Ffamily%3DRoboto;fontSize=12;fontColor=default;labelBackgroundColor=default;endArrow=open;endFill=0;fillColor=#e1d5e7;entryX=0;entryY=1;entryDx=0;entryDy=0;sketch=1;curveFitting=1;jiggle=2;" edge="1" parent="1" source="vpBdXBjlBsXyA6EoPlu3-127" target="vpBdXBjlBsXyA6EoPlu3-134">
          <mxGeometry relative="1" as="geometry">
            <mxPoint x="260" y="190" as="targetPoint" />
          </mxGeometry>
        </mxCell>
        <mxCell id="vpBdXBjlBsXyA6EoPlu3-144" style="edgeStyle=orthogonalEdgeStyle;rounded=0;orthogonalLoop=1;jettySize=auto;html=1;exitX=0.25;exitY=1;exitDx=0;exitDy=0;dashed=1;strokeColor=#9673a6;align=center;verticalAlign=middle;fontFamily=Roboto;fontSource=https%3A%2F%2Ffonts.googleapis.com%2Fcss%3Ffamily%3DRoboto;fontSize=12;fontColor=default;labelBackgroundColor=default;endArrow=open;endFill=0;entryX=0;entryY=0;entryDx=0;entryDy=0;fillColor=#e1d5e7;strokeWidth=1;sketch=1;curveFitting=1;jiggle=2;" edge="1" parent="1" source="vpBdXBjlBsXyA6EoPlu3-141" target="vpBdXBjlBsXyA6EoPlu3-145">
          <mxGeometry relative="1" as="geometry">
            <mxPoint x="400" y="410" as="targetPoint" />
          </mxGeometry>
        </mxCell>
        <mxCell id="vpBdXBjlBsXyA6EoPlu3-185" value="" style="rounded=0;whiteSpace=wrap;html=1;strokeColor=#d6b656;align=center;verticalAlign=middle;fontFamily=Roboto;fontSource=https%3A%2F%2Ffonts.googleapis.com%2Fcss%3Ffamily%3DRoboto;fontSize=12;labelBackgroundColor=default;fillColor=none;strokeWidth=2;dashed=1;dashPattern=1 1;sketch=1;curveFitting=1;jiggle=2;" vertex="1" parent="1">
          <mxGeometry x="280" y="270" width="100" height="22" as="geometry" />
        </mxCell>
        <mxCell id="vpBdXBjlBsXyA6EoPlu3-163" value="" style="shape=flexArrow;endArrow=classic;html=1;rounded=0;strokeColor=#b85450;align=center;verticalAlign=middle;fontFamily=Roboto;fontSource=https%3A%2F%2Ffonts.googleapis.com%2Fcss%3Ffamily%3DRoboto;fontSize=12;fontColor=default;labelBackgroundColor=default;edgeStyle=orthogonalEdgeStyle;endWidth=5.724852071005917;endSize=3.167307692307692;width=4.230769230769231;exitX=0.5;exitY=1;exitDx=0;exitDy=0;fillColor=#f8cecc;sketch=1;curveFitting=1;jiggle=2;" edge="1" parent="1" source="vpBdXBjlBsXyA6EoPlu3-143">
          <mxGeometry width="50" height="50" relative="1" as="geometry">
            <mxPoint x="370" y="320" as="sourcePoint" />
            <mxPoint x="370" y="420" as="targetPoint" />
          </mxGeometry>
        </mxCell>
        <mxCell id="vpBdXBjlBsXyA6EoPlu3-158" value="" style="shape=flexArrow;endArrow=classic;html=1;rounded=0;strokeColor=#6c8ebf;align=center;verticalAlign=middle;fontFamily=Roboto;fontSource=https%3A%2F%2Ffonts.googleapis.com%2Fcss%3Ffamily%3DRoboto;fontSize=12;fontColor=default;labelBackgroundColor=default;edgeStyle=orthogonalEdgeStyle;entryX=0.5;entryY=1;entryDx=0;entryDy=0;endWidth=5.724852071005917;endSize=3.167307692307692;width=4.230769230769231;exitX=0.467;exitY=0.133;exitDx=0;exitDy=0;exitPerimeter=0;fillColor=#dae8fc;sketch=1;curveFitting=1;jiggle=2;" edge="1" parent="1" source="vpBdXBjlBsXyA6EoPlu3-160" target="vpBdXBjlBsXyA6EoPlu3-137">
          <mxGeometry width="50" height="50" relative="1" as="geometry">
            <mxPoint x="300" y="430" as="sourcePoint" />
            <mxPoint x="299.76" y="300" as="targetPoint" />
            <Array as="points" />
          </mxGeometry>
        </mxCell>
        <mxCell id="vpBdXBjlBsXyA6EoPlu3-131" value="&lt;div&gt;wait for&lt;/div&gt;&lt;div&gt;canCommit&lt;br&gt;&lt;/div&gt;" style="shape=callout;whiteSpace=wrap;html=1;perimeter=calloutPerimeter;rounded=0;strokeColor=default;align=center;verticalAlign=middle;fontFamily=Roboto;fontSource=https%3A%2F%2Ffonts.googleapis.com%2Fcss%3Ffamily%3DRoboto;fontSize=12;fontColor=default;labelBackgroundColor=default;fillColor=default;flipH=0;flipV=1;position2=0.5;size=20;position=0.5;sketch=1;curveFitting=1;jiggle=2;" vertex="1" parent="1">
          <mxGeometry x="235" y="341" width="90" height="60" as="geometry" />
        </mxCell>
        <mxCell id="vpBdXBjlBsXyA6EoPlu3-187" value="" style="rounded=0;whiteSpace=wrap;html=1;strokeColor=#d6b656;align=center;verticalAlign=middle;fontFamily=Roboto;fontSource=https%3A%2F%2Ffonts.googleapis.com%2Fcss%3Ffamily%3DRoboto;fontSize=12;labelBackgroundColor=default;fillColor=none;strokeWidth=2;dashed=1;dashPattern=1 1;sketch=1;curveFitting=1;jiggle=2;" vertex="1" parent="1">
          <mxGeometry x="488" y="331" width="40" height="10" as="geometry" />
        </mxCell>
        <mxCell id="vpBdXBjlBsXyA6EoPlu3-190" style="edgeStyle=orthogonalEdgeStyle;rounded=0;orthogonalLoop=1;jettySize=auto;html=1;dashed=1;strokeColor=default;align=center;verticalAlign=middle;fontFamily=Roboto;fontSource=https%3A%2F%2Ffonts.googleapis.com%2Fcss%3Ffamily%3DRoboto;fontSize=12;fontColor=default;labelBackgroundColor=default;endArrow=none;endFill=0;dashPattern=1 1;exitX=1;exitY=0.5;exitDx=0;exitDy=0;entryX=0;entryY=0.5;entryDx=0;entryDy=0;" edge="1" parent="1" source="vpBdXBjlBsXyA6EoPlu3-121" target="vpBdXBjlBsXyA6EoPlu3-134">
          <mxGeometry relative="1" as="geometry">
            <mxPoint x="225" y="280" as="targetPoint" />
            <mxPoint x="185" y="280" as="sourcePoint" />
            <Array as="points">
              <mxPoint x="180" y="280" />
              <mxPoint x="260" y="280" />
            </Array>
          </mxGeometry>
        </mxCell>
        <mxCell id="vpBdXBjlBsXyA6EoPlu3-191" value="" style="rounded=0;whiteSpace=wrap;html=1;strokeColor=#b85450;align=center;verticalAlign=middle;fontFamily=Roboto;fontSource=https%3A%2F%2Ffonts.googleapis.com%2Fcss%3Ffamily%3DRoboto;fontSize=12;labelBackgroundColor=default;fillColor=none;sketch=1;curveFitting=1;jiggle=2;fillStyle=auto;" vertex="1" parent="1">
          <mxGeometry x="488" y="390" width="40" height="10" as="geometry" />
        </mxCell>
        <mxCell id="vpBdXBjlBsXyA6EoPlu3-193" value="" style="rounded=0;whiteSpace=wrap;html=1;strokeColor=#6c8ebf;align=center;verticalAlign=middle;fontFamily=Roboto;fontSource=https%3A%2F%2Ffonts.googleapis.com%2Fcss%3Ffamily%3DRoboto;fontSize=12;labelBackgroundColor=default;fillColor=none;fillStyle=solid;strokeWidth=1;perimeterSpacing=0;sketch=1;curveFitting=1;jiggle=2;" vertex="1" parent="1">
          <mxGeometry x="488" y="352" width="40" height="10" as="geometry" />
        </mxCell>
        <mxCell id="vpBdXBjlBsXyA6EoPlu3-194" value="" style="rounded=0;whiteSpace=wrap;html=1;strokeColor=#82b366;align=center;verticalAlign=middle;fontFamily=Roboto;fontSource=https%3A%2F%2Ffonts.googleapis.com%2Fcss%3Ffamily%3DRoboto;fontSize=12;labelBackgroundColor=default;fillColor=none;fillStyle=solid;sketch=1;curveFitting=1;jiggle=2;" vertex="1" parent="1">
          <mxGeometry x="488" y="371" width="40" height="10" as="geometry" />
        </mxCell>
        <mxCell id="vpBdXBjlBsXyA6EoPlu3-196" value="ver 1" style="text;html=1;align=center;verticalAlign=middle;resizable=0;points=[];autosize=1;strokeColor=none;fillColor=none;fontFamily=Roboto;fontSource=https%3A%2F%2Ffonts.googleapis.com%2Fcss%3Ffamily%3DRoboto;fontSize=12;fontColor=default;labelBackgroundColor=default;" vertex="1" parent="1">
          <mxGeometry x="175" y="420" width="50" height="30" as="geometry" />
        </mxCell>
        <mxCell id="vpBdXBjlBsXyA6EoPlu3-197" value="ver 1" style="text;html=1;align=center;verticalAlign=middle;resizable=0;points=[];autosize=1;strokeColor=none;fillColor=none;fontFamily=Roboto;fontSource=https%3A%2F%2Ffonts.googleapis.com%2Fcss%3Ffamily%3DRoboto;fontSize=12;fontColor=default;labelBackgroundColor=default;" vertex="1" parent="1">
          <mxGeometry x="275" y="420" width="50" height="30" as="geometry" />
        </mxCell>
        <mxCell id="vpBdXBjlBsXyA6EoPlu3-198" value="ver 2" style="text;html=1;align=center;verticalAlign=middle;resizable=0;points=[];autosize=1;strokeColor=none;fillColor=none;fontFamily=Roboto;fontSource=https%3A%2F%2Ffonts.googleapis.com%2Fcss%3Ffamily%3DRoboto;fontSize=12;fontColor=default;labelBackgroundColor=default;" vertex="1" parent="1">
          <mxGeometry x="345" y="420" width="50" height="30" as="geometry" />
        </mxCell>
        <mxCell id="vpBdXBjlBsXyA6EoPlu3-199" value="??" style="text;html=1;align=center;verticalAlign=middle;resizable=0;points=[];autosize=1;strokeColor=none;fillColor=none;fontFamily=Roboto;fontSource=https%3A%2F%2Ffonts.googleapis.com%2Fcss%3Ffamily%3DRoboto;fontSize=12;fontColor=default;labelBackgroundColor=default;" vertex="1" parent="1">
          <mxGeometry x="415" y="420" width="30" height="30" as="geometry" />
        </mxCell>
        <mxCell id="vpBdXBjlBsXyA6EoPlu3-120" value="&lt;div&gt;wait for&lt;/div&gt;&lt;div&gt;beforeCommit&lt;br&gt;&lt;/div&gt;" style="shape=callout;whiteSpace=wrap;html=1;perimeter=calloutPerimeter;rounded=0;strokeColor=default;align=center;verticalAlign=middle;fontFamily=Roboto;fontSource=https%3A%2F%2Ffonts.googleapis.com%2Fcss%3Ffamily%3DRoboto;fontSize=12;fontColor=default;labelBackgroundColor=default;fillColor=default;flipH=0;flipV=0;position2=0.5;size=20;position=0.5;sketch=1;curveFitting=1;jiggle=2;" vertex="1" parent="1">
          <mxGeometry x="135" y="217" width="90" height="60" as="geometry" />
        </mxCell>
      </root>
    </mxGraphModel>
  </diagram>
</mxfile>
